<svg
   viewBox="0 0 370.82057 561.73657"
   width="370.82059"
   height="561.73657">
  <defs
     id="defs888">
    <style
       id="style886">
      .cls-1 {
        fill: #31a5dc;
      }

      .cls-1, .cls-2 {
        stroke-width: 0px;
      }

      .cls-2 {
        fill: #003760;
      }
    </style>
  </defs>
  <g
     id="g912"
     transform="translate(0.00245553,-9.1165246e-4)">
    <g
       id="g908">
      <path
         class="cls-2"
         d="m 288.49,221.88 c -28.33,-18.71 -62.42,-29.69 -99.69,-30.78 -37.71,-1.11 -75.46,-0.9 -113.24,-0.61 1.53,32.1 13.42,57.87 34.77,76.35 9.6,-0.02 19.67,-0.06 30.76,-0.06 17.6,1.09 39.18,-2.14 60.49,1.55 13.82,2.41 26.27,6.59 37.25,12.58 22.55,12.2 38.95,31.85 48.4,58.73 0.36,-0.23 0.74,-0.48 1.09,-0.73 24,-16.55 42.79,-35.8 56.23,-57.49 -13.92,-24.13 -33.07,-44.37 -56.06,-59.53 z"
         id="path904" />
      <path
         class="cls-2"
         d="M 289.32,529.15 C 212.45,582.08 110,569.25 47.6,499.98 16.13,465.05 0.44,423.58 0.13,376.51 -0.06,349.65 0.09,322.8 0.09,295.97 c 0,-32.22 0.1,-64.45 -0.09,-96.66 -0.02,-1.62 0.08,-3 0.38,-4.14 0.71,-2.98 2.71,-4.41 7.47,-4.39 22.89,0.06 45.79,-0.15 68.7,-0.29 1.53,32.1 13.42,57.87 34.77,76.35 -9.34,0 -18.23,-0.02 -27.11,-0.17 -5.96,-0.08 -8.44,1.49 -8.38,7.94 0.19,20.2 -0.15,40.42 -0.17,60.62 -0.02,15.18 0.17,30.36 0.88,45.52 2.23,46.74 26.39,80.06 69.79,96.94 42.75,16.63 82.6,8.29 115.42,-23.83 32.55,-31.87 41.47,-71.31 26.5,-114.1 -0.02,-0.04 -0.02,-0.08 -0.04,-0.13 0.36,-0.23 0.74,-0.48 1.09,-0.73 24,-16.55 42.79,-35.8 56.23,-57.49 11.99,20.72 20.09,44.32 23.41,70.07 9.57,74.01 -17.62,134.97 -79.64,177.68 z"
         id="path906" />
    </g>
    <path
       class="cls-1"
       d="M 368.96,161.22 C 356.97,68.65 283.27,3.58 189.8,0.85 129.2,-0.94 68.5,0.68 7.86,0.53 1.26,0.51 -0.04,3.24 0,9.06 c 0.19,32.21 0.08,64.44 0.08,96.65 0,26.83 -0.15,53.69 0.04,80.52 0.02,3 0.1,5.98 0.25,8.94 0.71,-2.98 2.71,-4.41 7.47,-4.39 22.89,0.06 45.79,-0.15 68.7,-0.29 v -0.02 c -1.68,-35.3 -0.38,-70.74 -0.71,-106.12 -0.06,-6.45 2.41,-8.04 8.38,-7.94 17.99,0.27 36.01,0.1 57.87,0.1 17.6,1.09 39.18,-2.16 60.49,1.55 42.2,7.33 71.66,31.39 85.69,71.43 8.97,25.64 9.36,50.06 1.22,72.38 -5.42,14.93 -14.66,28.93 -27.72,41.72 -7.01,6.84 -14.32,12.62 -21.94,17.3 -28.03,17.24 -59.86,19.61 -93.48,6.53 -13.59,-5.29 -25.3,-12.2 -35.02,-20.6 -9.34,0 -18.23,-0.02 -27.11,-0.17 -5.96,-0.08 -8.44,1.49 -8.38,7.94 0.19,20.2 -0.15,40.42 -0.17,60.62 61.88,45.82 146.5,49.24 212.55,4.41 0.36,-0.23 0.74,-0.48 1.09,-0.73 24,-16.55 42.79,-35.8 56.23,-57.49 21.33,-34.37 29.29,-74.81 23.41,-120.19 z"
       id="path910" />
  </g>
</svg>
