<?xml version="1.0" encoding="UTF-8"?><svg id="oo" xmlns="http://www.w3.org/2000/svg" viewBox="0 0 1566.56 685.22"><defs><style>.cls-1{fill:#31a5dc;}.cls-1,.cls-2{stroke-width:0px;}.cls-2{fill:#003760;}</style></defs><path class="cls-2" d="m699.86,415.39c10.22-5.87,21.87-8.8,34.93-8.8,14.01,0,26.6,3.32,37.77,9.94,11.17,6.63,19.97,15.95,26.41,27.97,6.43,12.03,9.66,25.98,9.66,41.89s-3.22,29.72-9.66,42.03c-6.44,12.31-15.29,21.87-26.55,28.68-11.27,6.82-23.81,10.22-37.63,10.22s-25.23-2.93-35.36-8.8c-10.13-5.87-17.75-13.35-22.86-22.43v28.68h-25.84v-210.14h25.84v83.49c5.3-9.27,13.06-16.85,23.29-22.72Zm75.25,40.32c-4.73-8.71-11.12-15.33-19.17-19.88-8.05-4.54-16.9-6.81-26.55-6.81s-18.22,2.32-26.27,6.96c-8.05,4.64-14.48,11.36-19.31,20.16-4.83,8.8-7.24,18.98-7.24,30.53s2.41,22.01,7.24,30.81c4.83,8.8,11.26,15.53,19.31,20.16,8.04,4.64,16.8,6.96,26.27,6.96s18.5-2.32,26.55-6.96c8.04-4.64,14.43-11.36,19.17-20.16,4.73-8.8,7.1-19.17,7.1-31.1s-2.37-21.96-7.1-30.67Z"/><path class="cls-2" d="m983.84,496.61h-124.38c.94,15.33,6.2,27.31,15.76,35.92,9.56,8.62,21.16,12.92,34.79,12.92,11.17,0,20.49-2.6,27.97-7.81,7.48-5.2,12.73-12.16,15.76-20.87h27.83c-4.17,14.96-12.5,27.12-24.99,36.49-12.5,9.37-28.02,14.06-46.57,14.06-14.77,0-27.97-3.31-39.61-9.94-11.64-6.62-20.78-16.04-27.4-28.26-6.63-12.21-9.94-26.36-9.94-42.45s3.22-30.19,9.65-42.31c6.43-12.11,15.48-21.44,27.12-27.97s25.03-9.8,40.18-9.8,27.83,3.22,39.19,9.66c11.36,6.44,20.11,15.29,26.27,26.55,6.15,11.27,9.23,24,9.23,38.19,0,4.93-.28,10.13-.85,15.62Zm-32.37-46.43c-4.36-7.1-10.27-12.49-17.75-16.19-7.48-3.69-15.76-5.54-24.85-5.54-13.06,0-24.19,4.17-33.37,12.49-9.19,8.33-14.44,19.88-15.76,34.65h98.26c0-9.84-2.18-18.32-6.53-25.42Z"/><path class="cls-1" d="m1156.5,479.85c7.19,9.09,10.79,19.5,10.79,31.24,0,10.61-2.6,19.93-7.81,27.97-5.21,8.05-12.73,14.34-22.58,18.88-9.85,4.54-21.49,6.82-34.93,6.82h-85.48v-198.22h81.79c13.44,0,25.03,2.18,34.79,6.53,9.75,4.36,17.13,10.41,22.15,18.17,5.01,7.77,7.53,16.57,7.53,26.41,0,11.55-3.08,21.2-9.23,28.97-6.15,7.77-14.34,13.25-24.56,16.47,11.17,2.09,20.35,7.67,27.55,16.75Zm-100.24-31.52h36.35c9.46,0,16.75-2.13,21.87-6.39,5.11-4.26,7.67-10.37,7.67-18.32s-2.56-14.1-7.67-18.46c-5.11-4.35-12.4-6.53-21.87-6.53h-36.35v49.7Zm62.62,77.24c5.39-4.54,8.09-10.98,8.09-19.31s-2.84-15.19-8.52-20.02c-5.68-4.83-13.35-7.24-23-7.24h-39.19v53.39h40.04c9.66,0,17.18-2.27,22.58-6.82Z"/><path class="cls-1" d="m1239.99,553.69c-15.53-8.71-27.83-20.77-36.92-36.21-9.09-15.43-13.63-32.89-13.63-52.39s4.54-36.68,13.63-52.11c9.09-15.43,21.39-27.5,36.92-36.21,15.52-8.71,32.56-13.06,51.12-13.06s35.83,4.36,51.26,13.06c15.43,8.71,27.64,20.78,36.63,36.21,8.99,15.43,13.49,32.8,13.49,52.11s-4.5,36.97-13.49,52.39c-8.99,15.43-21.25,27.5-36.78,36.21-15.53,8.71-32.56,13.06-51.12,13.06s-35.59-4.35-51.12-13.06Zm82.64-30.53c9.09-5.4,16.19-13.11,21.3-23.14,5.11-10.03,7.67-21.68,7.67-34.93s-2.56-24.85-7.67-34.79c-5.11-9.94-12.21-17.56-21.3-22.86-9.09-5.3-19.59-7.95-31.52-7.95s-22.48,2.65-31.66,7.95c-9.19,5.3-16.33,12.92-21.44,22.86-5.11,9.94-7.67,21.54-7.67,34.79s2.56,24.9,7.67,34.93c5.11,10.04,12.26,17.75,21.44,23.14,9.18,5.39,19.74,8.09,31.66,8.09s22.43-2.7,31.52-8.09Z"/><path class="cls-1" d="m1559.03,457.71c-5.02,9.28-12.88,16.75-23.57,22.43-10.7,5.68-24.19,8.52-40.47,8.52h-33.23v76.11h-39.76v-198.22h72.98c15.33,0,28.4,2.65,39.19,7.95,10.79,5.3,18.89,12.59,24.28,21.87,5.4,9.28,8.09,19.79,8.09,31.52,0,10.61-2.51,20.54-7.52,29.82Zm-41.32-8.66c5.3-5.01,7.95-12.07,7.95-21.16,0-19.31-10.79-28.97-32.37-28.97h-31.52v57.65h31.52c10.98,0,19.12-2.51,24.42-7.52Z"/><path class="cls-2" d="m351.9,270.65c-34.55-22.82-76.15-36.22-121.61-37.55-46-1.36-92.05-1.1-138.13-.74,1.87,39.16,16.37,70.59,42.41,93.13,11.7-.03,24-.08,37.52-.08,21.46,1.33,47.79-2.61,73.79,1.9,16.85,2.95,32.04,8.04,45.44,15.34,27.51,14.88,47.51,38.85,59.04,71.64.44-.28.9-.59,1.33-.9,29.27-20.18,52.2-43.67,68.59-70.13-16.98-29.43-40.34-54.12-68.38-72.61Z"/><path class="cls-2" d="m352.91,645.46c-93.77,64.57-218.73,48.92-294.85-35.58C19.67,567.27.54,516.68.16,459.26c-.23-32.76-.05-65.52-.05-98.25C.11,321.72.23,282.41,0,243.12c-.03-1.97.1-3.66.46-5.05.87-3.64,3.3-5.38,9.12-5.35,27.92.08,55.86-.18,83.8-.36,1.87,39.16,16.37,70.59,42.41,93.13-11.4,0-22.23-.03-33.07-.2-7.27-.1-10.3,1.82-10.22,9.68.23,24.64-.18,49.3-.2,73.94-.03,18.52.2,37.04,1.08,55.53,2.71,57.01,32.19,97.66,85.14,118.25,52.15,20.28,100.76,10.12,140.79-29.07,39.7-38.88,50.58-86.98,32.32-139.18-.03-.05-.03-.1-.05-.15.44-.28.9-.59,1.33-.9,29.27-20.18,52.2-43.67,68.59-70.13,14.62,25.28,24.51,54.07,28.56,85.47,11.68,90.28-21.49,164.64-97.15,216.73Z"/><path class="cls-1" d="m450.06,196.66C435.44,83.73,345.54,4.36,231.51,1.03,157.59-1.15,83.55.83,9.58.65,1.54.62-.05,3.95,0,11.05c.23,39.29.1,78.6.1,117.89,0,32.73-.18,65.49.05,98.22.03,3.66.13,7.3.31,10.91.87-3.64,3.3-5.38,9.12-5.35,27.92.08,55.86-.18,83.8-.36v-.03c-2.05-43.05-.46-86.29-.87-129.44-.08-7.86,2.95-9.81,10.22-9.68,21.95.33,43.93.13,70.59.13,21.46,1.33,47.79-2.64,73.79,1.9,51.48,8.94,87.41,38.29,104.52,87.13,10.94,31.27,11.42,61.06,1.49,88.29-6.61,18.21-17.88,35.29-33.81,50.89-8.55,8.35-17.47,15.39-26.76,21.1-34.19,21.03-73.02,23.92-114.03,7.97-16.57-6.45-30.86-14.88-42.72-25.13-11.4,0-22.23-.03-33.07-.2-7.27-.1-10.3,1.82-10.22,9.68.23,24.64-.18,49.3-.2,73.94,75.48,55.89,178.7,60.06,259.27,5.38.44-.28.9-.59,1.33-.9,29.27-20.18,52.2-43.67,68.59-70.13,26.02-41.93,35.73-91.26,28.56-146.6Z"/></svg>