<svg xmlns="http://www.w3.org/2000/svg" id="oo" viewBox="0 0 1412.55 561.75" transform="matrix(1, 0, 0, 1, 0, 0)">
  <defs fill="#000000">
    <style>
      .cls-1 {
        fill: #31a5dc;
      }

      .cls-1, .cls-2 {
        stroke-width: 0px;
      }

      .cls-2 {
        fill: #ffffff;
      }
    </style>
  </defs>
  <g>
    <path class="cls-2" d="m573.76,340.54c8.38-4.81,17.93-7.22,28.63-7.22,11.48,0,21.8,2.72,30.96,8.15,9.16,5.43,16.37,13.08,21.65,22.93,5.27,9.86,7.92,21.3,7.92,34.34s-2.64,24.37-7.92,34.46c-5.28,10.09-12.54,17.93-21.77,23.51-9.24,5.59-19.52,8.38-30.85,8.38s-20.68-2.4-28.98-7.22c-8.3-4.81-14.55-10.94-18.74-18.39v23.51h-21.19v-172.28h21.19v68.45c4.34-7.6,10.71-13.81,19.09-18.62Zm61.69,33.06c-3.88-7.14-9.12-12.57-15.71-16.3-6.6-3.73-13.85-5.59-21.77-5.59s-14.94,1.9-21.53,5.7c-6.6,3.8-11.87,9.31-15.83,16.53-3.96,7.22-5.94,15.56-5.94,25.03s1.98,18.04,5.94,25.26c3.96,7.22,9.23,12.73,15.83,16.53,6.59,3.81,13.77,5.7,21.53,5.7s15.17-1.9,21.77-5.7c6.6-3.8,11.83-9.31,15.71-16.53,3.88-7.22,5.82-15.71,5.82-25.49s-1.94-18-5.82-25.14Z" fill="#000000"/>
    <path class="cls-2" d="m806.56,407.12h-101.97c.78,12.57,5.08,22.39,12.92,29.45,7.83,7.06,17.34,10.59,28.52,10.59,9.16,0,16.8-2.13,22.93-6.4,6.13-4.27,10.44-9.97,12.92-17.11h22.81c-3.42,12.26-10.24,22.23-20.49,29.92-10.24,7.68-22.97,11.52-38.18,11.52-12.11,0-22.93-2.71-32.48-8.15-9.54-5.43-17.04-13.15-22.46-23.16-5.44-10.01-8.15-21.61-8.15-34.81s2.64-24.75,7.92-34.69c5.27-9.93,12.69-17.58,22.23-22.93,9.54-5.36,20.52-8.03,32.94-8.03s22.82,2.64,32.13,7.92c9.31,5.28,16.49,12.54,21.53,21.77,5.04,9.24,7.57,19.67,7.57,31.31,0,4.04-.23,8.3-.7,12.8Zm-26.54-38.06c-3.57-5.82-8.42-10.24-14.55-13.27-6.13-3.03-12.92-4.54-20.37-4.54-10.71,0-19.83,3.42-27.35,10.24-7.53,6.83-11.84,16.3-12.92,28.4h80.55c0-8.07-1.79-15.02-5.36-20.84Z" fill="#000000"/>
    <path class="cls-2" d="m923.66,368.71v17.93h-92.89v-17.93h92.89Z" fill="#000000"/>
    <path class="cls-1" d="m1076.38,393.39c5.9,7.45,8.85,15.99,8.85,25.61,0,8.69-2.14,16.34-6.4,22.93-4.27,6.6-10.44,11.76-18.51,15.48-8.07,3.72-17.62,5.59-28.63,5.59h-70.08v-162.5h67.05c11.02,0,20.52,1.79,28.52,5.35,7.99,3.57,14.04,8.54,18.16,14.9,4.11,6.37,6.17,13.58,6.17,21.65,0,9.47-2.52,17.38-7.57,23.75-5.04,6.37-11.76,10.87-20.14,13.5,9.16,1.71,16.68,6.29,22.58,13.74Zm-82.18-25.84h29.8c7.76,0,13.74-1.75,17.93-5.24,4.19-3.49,6.29-8.5,6.29-15.02s-2.1-11.56-6.29-15.13c-4.19-3.57-10.17-5.35-17.93-5.35h-29.8v40.74Zm51.33,63.32c4.42-3.73,6.63-9,6.63-15.83s-2.33-12.46-6.98-16.41c-4.66-3.96-10.94-5.94-18.86-5.94h-32.13v43.77h32.83c7.92,0,14.08-1.86,18.51-5.59Z" fill="#000000"/>
    <path class="cls-1" d="m1144.83,453.92c-12.73-7.14-22.82-17.03-30.27-29.68-7.45-12.65-11.17-26.97-11.17-42.95s3.72-30.07,11.17-42.72c7.45-12.65,17.54-22.54,30.27-29.68,12.72-7.14,26.69-10.71,41.91-10.71s29.37,3.57,42.02,10.71c12.65,7.14,22.66,17.04,30.03,29.68,7.37,12.65,11.06,26.89,11.06,42.72s-3.69,30.31-11.06,42.95c-7.37,12.65-17.42,22.55-30.15,29.68-12.73,7.14-26.7,10.71-41.91,10.71s-29.18-3.57-41.91-10.71Zm67.75-25.03c7.45-4.42,13.27-10.75,17.46-18.97,4.19-8.22,6.29-17.77,6.29-28.64s-2.09-20.37-6.29-28.52c-4.19-8.15-10.01-14.39-17.46-18.74-7.45-4.34-16.06-6.52-25.84-6.52s-18.43,2.18-25.96,6.52c-7.53,4.35-13.39,10.59-17.58,18.74s-6.29,17.66-6.29,28.52,2.1,20.41,6.29,28.64c4.19,8.23,10.05,14.55,17.58,18.97,7.53,4.42,16.18,6.64,25.96,6.64s18.39-2.21,25.84-6.64Z" fill="#000000"/>
    <path class="cls-1" d="m1406.38,375.23c-4.11,7.61-10.56,13.74-19.32,18.39-8.77,4.66-19.83,6.98-33.18,6.98h-27.24v62.39h-32.59v-162.5h59.83c12.57,0,23.28,2.18,32.13,6.52,8.85,4.35,15.48,10.32,19.91,17.93,4.42,7.61,6.63,16.22,6.63,25.84,0,8.69-2.06,16.84-6.17,24.44Zm-33.87-7.1c4.34-4.11,6.52-9.89,6.52-17.34,0-15.83-8.85-23.75-26.54-23.75h-25.84v47.26h25.84c9,0,15.67-2.06,20.02-6.17Z" fill="#000000"/>
  </g>
  <g>
    <g>
      <path class="cls-2" d="m288.49,221.88c-28.33-18.71-62.42-29.69-99.69-30.78-37.71-1.11-75.46-.9-113.24-.61,1.53,32.1,13.42,57.87,34.77,76.35,9.6-.02,19.67-.06,30.76-.06,17.6,1.09,39.18-2.14,60.49,1.55,13.82,2.41,26.27,6.59,37.25,12.58,22.55,12.2,38.95,31.85,48.4,58.73.36-.23.74-.48,1.09-.73,24-16.55,42.79-35.8,56.23-57.49-13.92-24.13-33.07-44.37-56.06-59.53Z" fill="#000000"/>
      <path class="cls-2" d="m289.32,529.15c-76.87,52.93-179.32,40.1-241.72-29.17C16.13,465.05.44,423.58.13,376.51c-.19-26.86-.04-53.71-.04-80.54C.09,263.75.19,231.52,0,199.31c-.02-1.62.08-3,.38-4.14.71-2.98,2.71-4.41,7.47-4.39,22.89.06,45.79-.15,68.7-.29,1.53,32.1,13.42,57.87,34.77,76.35-9.34,0-18.23-.02-27.11-.17-5.96-.08-8.44,1.49-8.38,7.94.19,20.2-.15,40.42-.17,60.62-.02,15.18.17,30.36.88,45.52,2.23,46.74,26.39,80.06,69.79,96.94,42.75,16.63,82.6,8.29,115.42-23.83,32.55-31.87,41.47-71.31,26.5-114.1-.02-.04-.02-.08-.04-.13.36-.23.74-.48,1.09-.73,24-16.55,42.79-35.8,56.23-57.49,11.99,20.72,20.09,44.32,23.41,70.07,9.57,74.01-17.62,134.97-79.64,177.68Z" fill="#000000"/>
    </g>
    <path class="cls-1" d="m368.96,161.22C356.97,68.65,283.27,3.58,189.8.85,129.2-.94,68.5.68,7.86.53,1.26.51-.04,3.24,0,9.06c.19,32.21.08,64.44.08,96.65,0,26.83-.15,53.69.04,80.52.02,3,.1,5.98.25,8.94.71-2.98,2.71-4.41,7.47-4.39,22.89.06,45.79-.15,68.7-.29v-.02c-1.68-35.3-.38-70.74-.71-106.12-.06-6.45,2.41-8.04,8.38-7.94,17.99.27,36.01.1,57.87.1,17.6,1.09,39.18-2.16,60.49,1.55,42.2,7.33,71.66,31.39,85.69,71.43,8.97,25.64,9.36,50.06,1.22,72.38-5.42,14.93-14.66,28.93-27.72,41.72-7.01,6.84-14.32,12.62-21.94,17.3-28.03,17.24-59.86,19.61-93.48,6.53-13.59-5.29-25.3-12.2-35.02-20.6-9.34,0-18.23-.02-27.11-.17-5.96-.08-8.44,1.49-8.38,7.94.19,20.2-.15,40.42-.17,60.62,61.88,45.82,146.5,49.24,212.55,4.41.36-.23.74-.48,1.09-.73,24-16.55,42.79-35.8,56.23-57.49,21.33-34.37,29.29-74.81,23.41-120.19Z" fill="#000000"/>
  </g>
</svg>