<?xml version="1.0" encoding="UTF-8"?><svg id="oo" xmlns="http://www.w3.org/2000/svg" viewBox="0 0 1566.01 684.98"><defs><style>.cls-1{fill:#31a5dc;}.cls-1,.cls-2{stroke-width:0px;}.cls-2{fill:#fff;}</style></defs><path class="cls-2" d="m699.62,415.25c10.22-5.86,21.86-8.8,34.92-8.8,14,0,26.59,3.31,37.76,9.94,11.16,6.63,19.96,15.95,26.4,27.96,6.43,12.02,9.65,25.97,9.65,41.87s-3.22,29.71-9.65,42.01c-6.44,12.3-15.29,21.86-26.54,28.67-11.26,6.81-23.8,10.22-37.61,10.22s-25.22-2.93-35.34-8.8c-10.13-5.86-17.74-13.34-22.85-22.43v28.67h-25.83v-210.07h25.83v83.46c5.3-9.27,13.06-16.84,23.28-22.71Zm75.23,40.31c-4.73-8.7-11.12-15.33-19.16-19.87-8.05-4.54-16.89-6.81-26.54-6.81s-18.22,2.32-26.26,6.96c-8.05,4.64-14.48,11.36-19.3,20.16-4.83,8.8-7.24,18.98-7.24,30.52s2.41,22,7.24,30.8c4.83,8.8,11.26,15.52,19.3,20.16,8.04,4.64,16.79,6.96,26.26,6.96s18.5-2.32,26.54-6.96c8.04-4.63,14.43-11.36,19.16-20.16,4.73-8.8,7.1-19.16,7.1-31.08s-2.37-21.95-7.1-30.66Z"/><path class="cls-2" d="m983.5,496.44h-124.34c.95,15.33,6.2,27.3,15.76,35.91,9.55,8.61,21.15,12.92,34.78,12.92,11.16,0,20.48-2.6,27.96-7.81,7.47-5.2,12.73-12.16,15.75-20.87h27.82c-4.16,14.95-12.49,27.11-24.98,36.48-12.49,9.37-28.01,14.05-46.56,14.05-14.76,0-27.96-3.31-39.6-9.94-11.64-6.62-20.77-16.04-27.39-28.25-6.63-12.21-9.94-26.35-9.94-42.44s3.22-30.18,9.65-42.3c6.43-12.11,15.47-21.43,27.11-27.96,11.64-6.53,25.03-9.79,40.17-9.79s27.82,3.22,39.18,9.65c11.35,6.44,20.11,15.29,26.26,26.54,6.15,11.26,9.23,23.99,9.23,38.18,0,4.92-.28,10.13-.85,15.61Zm-32.36-46.41c-4.36-7.1-10.27-12.49-17.74-16.18-7.48-3.69-15.75-5.54-24.84-5.54-13.06,0-24.18,4.17-33.36,12.49-9.18,8.33-14.43,19.87-15.75,34.63h98.22c0-9.84-2.18-18.31-6.53-25.41Z"/><path class="cls-1" d="m1156.09,479.69c7.19,9.08,10.79,19.5,10.79,31.23,0,10.6-2.6,19.92-7.81,27.96-5.21,8.05-12.73,14.34-22.57,18.88-9.84,4.54-21.48,6.81-34.92,6.81h-85.45v-198.15h81.76c13.44,0,25.03,2.18,34.78,6.53,9.74,4.36,17.12,10.41,22.14,18.17,5.01,7.76,7.52,16.56,7.52,26.4,0,11.55-3.08,21.2-9.23,28.96-6.15,7.76-14.34,13.25-24.56,16.46,11.17,2.08,20.34,7.67,27.54,16.75Zm-100.21-31.51h36.34c9.46,0,16.75-2.13,21.86-6.39,5.11-4.26,7.67-10.36,7.67-18.31s-2.55-14.1-7.67-18.45c-5.11-4.35-12.4-6.53-21.86-6.53h-36.34v49.68Zm62.6,77.22c5.39-4.54,8.09-10.97,8.09-19.3s-2.84-15.19-8.52-20.01c-5.68-4.83-13.34-7.24-23-7.24h-39.17v53.37h40.03c9.65,0,17.17-2.27,22.57-6.81Z"/><path class="cls-1" d="m1239.55,553.5c-15.52-8.7-27.82-20.77-36.9-36.19-9.08-15.42-13.63-32.88-13.63-52.38s4.54-36.66,13.63-52.09c9.08-15.42,21.38-27.49,36.9-36.19,15.52-8.7,32.55-13.06,51.1-13.06s35.81,4.36,51.24,13.06c15.42,8.71,27.63,20.77,36.62,36.19,8.99,15.43,13.48,32.79,13.48,52.09s-4.5,36.95-13.48,52.38c-8.99,15.43-21.25,27.49-36.76,36.19-15.52,8.71-32.55,13.06-51.1,13.06s-35.58-4.35-51.1-13.06Zm82.61-30.52c9.08-5.39,16.18-13.1,21.29-23.14,5.11-10.03,7.66-21.67,7.66-34.92s-2.55-24.84-7.66-34.78c-5.11-9.94-12.21-17.55-21.29-22.85-9.08-5.3-19.59-7.95-31.51-7.95s-22.47,2.65-31.65,7.95c-9.18,5.3-16.32,12.92-21.43,22.85-5.11,9.94-7.67,21.53-7.67,34.78s2.55,24.89,7.67,34.92c5.11,10.03,12.25,17.74,21.43,23.14,9.18,5.39,19.73,8.09,31.65,8.09s22.43-2.7,31.51-8.09Z"/><path class="cls-1" d="m1558.49,457.54c-5.02,9.28-12.87,16.75-23.56,22.43-10.69,5.68-24.18,8.52-40.45,8.52h-33.21v76.08h-39.74v-198.15h72.96c15.33,0,28.39,2.65,39.18,7.95,10.79,5.3,18.88,12.59,24.27,21.86,5.39,9.27,8.09,19.78,8.09,31.51,0,10.6-2.51,20.54-7.52,29.81Zm-41.3-8.66c5.3-5.01,7.95-12.06,7.95-21.15,0-19.3-10.79-28.96-32.36-28.96h-31.51v57.63h31.51c10.97,0,19.11-2.51,24.41-7.52Z"/><path class="cls-2" d="m352,270.56c-34.54-22.81-76.12-36.2-121.56-37.53-45.98-1.36-92.02-1.1-138.08-.74,1.87,39.15,16.36,70.56,42.4,93.09,11.7-.03,23.99-.08,37.51-.08,21.46,1.33,47.78-2.61,73.76,1.89,16.85,2.94,32.03,8.04,45.42,15.34,27.5,14.88,47.49,38.84,59.02,71.61.44-.28.9-.59,1.33-.9,29.26-20.18,52.18-43.65,68.57-70.1-16.97-29.42-40.33-54.1-68.36-72.59Z"/><path class="cls-2" d="m352.79,645.24c-93.73,64.55-218.65,48.9-294.74-35.56C19.67,567.07.54,516.5.16,459.1c-.23-32.75-.05-65.49-.05-98.21C.11,321.61.23,282.31,0,243.03c-.03-1.97.1-3.66.46-5.04.87-3.64,3.3-5.38,9.11-5.35,27.91.08,55.84-.18,83.77-.36,1.87,39.15,16.36,70.56,42.4,93.09-11.39,0-22.22-.03-33.05-.2-7.27-.1-10.29,1.82-10.22,9.68.23,24.63-.18,49.29-.2,73.92-.03,18.51.2,37.02,1.08,55.51,2.71,56.99,32.18,97.63,85.11,118.21,52.13,20.28,100.72,10.11,140.74-29.06,39.69-38.87,50.57-86.95,32.31-139.13-.03-.05-.03-.1-.05-.15.44-.28.9-.59,1.33-.9,29.26-20.18,52.18-43.65,68.57-70.1,14.62,25.27,24.5,54.05,28.55,85.44,11.67,90.25-21.48,164.58-97.11,216.65Z"/><path class="cls-1" d="m449.9,196.59C435.28,83.7,345.42,4.36,231.43,1.03,157.54-1.14,83.52.83,9.58.65,1.54.62-.05,3.95,0,11.04c.23,39.28.1,78.58.1,117.85,0,32.72-.18,65.47.05,98.19.03,3.66.13,7.3.31,10.91.87-3.64,3.3-5.38,9.11-5.35,27.91.08,55.84-.18,83.77-.36v-.03c-2.05-43.04-.46-86.26-.87-129.4-.08-7.86,2.94-9.81,10.22-9.68,21.94.33,43.91.13,70.56.13,21.46,1.33,47.78-2.64,73.76,1.89,51.46,8.94,87.38,38.28,104.49,87.1,10.93,31.26,11.42,61.04,1.49,88.25-6.61,18.2-17.87,35.28-33.8,50.87-8.55,8.35-17.46,15.39-26.76,21.1-34.18,21.02-72.99,23.91-113.99,7.96-16.57-6.45-30.85-14.88-42.71-25.12-11.39,0-22.22-.03-33.05-.2-7.27-.1-10.29,1.82-10.22,9.68.23,24.63-.18,49.29-.2,73.92,75.45,55.87,178.63,60.04,259.18,5.38.44-.28.9-.59,1.33-.9,29.26-20.18,52.18-43.65,68.57-70.1,26.01-41.91,35.72-91.22,28.55-146.55Z"/></svg>