<?xml version="1.0" standalone="no"?>
<!DOCTYPE svg PUBLIC "-//W3C//DTD SVG 20010904//EN"
 "http://www.w3.org/TR/2001/REC-SVG-20010904/DTD/svg10.dtd">
<svg version="1.0" xmlns="http://www.w3.org/2000/svg"
 width="637.000000pt" height="588.000000pt" viewBox="0 0 637.000000 588.000000"
 preserveAspectRatio="xMidYMid meet">

<g transform="translate(0.000000,588.000000) scale(0.100000,-0.100000)"
fill="#000000" stroke="none">
<path d="M2945 4605 c-211 -36 -410 -136 -574 -289 -96 -90 -236 -296 -214
-316 4 -4 75 -63 157 -131 142 -117 150 -122 163 -104 7 11 35 54 62 95 94
148 265 275 424 314 89 23 214 30 309 17 295 -39 488 -257 488 -551 0 -256
-149 -464 -396 -551 -43 -15 -94 -22 -191 -26 l-133 -6 0 -468 0 -469 189 0
188 0 7 88 c3 48 11 179 17 292 7 137 14 207 22 212 7 5 30 13 52 19 109 30
263 115 372 207 155 130 285 364 312 558 45 320 -32 605 -218 809 -143 157
-367 274 -586 305 -98 14 -354 11 -450 -5z"/>
<path d="M3119 1597 c-59 -22 -107 -56 -142 -100 -51 -64 -62 -100 -62 -207 0
-109 21 -166 85 -230 63 -63 121 -85 225 -85 108 1 162 21 225 86 64 66 90
134 90 233 0 68 -4 90 -28 141 -31 65 -77 112 -145 147 -53 27 -193 36 -248
15z"/>
</g>
</svg>
